<svg width="512" height="512" viewBox="0 0 512 512" fill="none" xmlns="http://www.w3.org/2000/svg">
  <rect width="512" height="512" rx="96" fill="#0B5D39"/>
  <path d="M256 51C165.7 51 92.5 124.2 92.5 214.5C92.5 336 256 461 256 461S419.5 336 419.5 214.5C419.5 124.2 346.3 51 256 51Z" fill="url(#paint0_linear)"/>
  <path d="M317.8 167.3C302.5 151.8 282.7 144.1 258.4 144.1C237.3 144.1 220.6 148.5 208.4 157.4C196.2 166.3 190.1 178.2 190.1 193.1C190.1 205.2 194.2 214.9 202.3 222.3C210.5 229.6 225.5 236.2 247.4 242L278.4 250.2C311.8 259.2 336.2 271.7 351.5 287.7C366.8 303.7 374.5 324.3 374.5 349.5C374.5 383 363.2 409.7 340.5 429.6C317.8 449.5 287.7 459.5 250.1 459.5C216 459.5 187.9 451.3 165.7 434.8C143.5 418.3 130.1 395.2 125.4 365.5H194.2C198.2 377.5 205.4 386.6 215.9 392.8C226.4 399 239.3 402.1 254.7 402.1C271.3 402.1 284.3 398.4 293.8 391.1C303.3 383.8 308.1 373.7 308.1 360.9C308.1 350.1 304.1 341.2 296.2 334.2C288.3 327.2 274.2 321.2 253.8 316.2L222.8 308.4C189.4 299.9 164.7 287.1 148.8 270C132.9 252.9 125 231.2 125 205C125 169.7 137.2 141.6 161.7 120.7C186.2 99.8 219 89.3 260.1 89.3C294.2 89.3 322.3 97.4 344.4 113.5C366.5 129.6 379.3 152.5 382.8 182.2H317.8V167.3Z" fill="white" fill-opacity="0.96"/>
  <defs>
    <linearGradient id="paint0_linear" x1="256" y1="51" x2="256" y2="461" gradientUnits="userSpaceOnUse">
      <stop stop-color="#1EDC82"/>
      <stop offset="1" stop-color="#087345"/>
    </linearGradient>
  </defs>
</svg>
